<?xml version="1.0" encoding="utf-8"?>
<!-- Generator: Adobe Illustrator 19.0.1, SVG Export Plug-In . SVG Version: 6.00 Build 0)  -->
<!DOCTYPE svg PUBLIC "-//W3C//DTD SVG 1.1//EN" "http://www.w3.org/Graphics/SVG/1.1/DTD/svg11.dtd">
<svg version="1.1" id="Layer_1" xmlns="http://www.w3.org/2000/svg" xmlns:xlink="http://www.w3.org/1999/xlink" x="0px" y="0px"
	 viewBox="412 0 100 100" style="enable-background:new 412 0 100 100;" xml:space="preserve">
<path d="M455,71.5h-9.1c-2.1,0-3.9-1.8-3.9-3.9V32.4c0-2.1,1.8-3.9,3.9-3.9h9.1c2.1,0,3.9,1.8,3.9,3.9v35.3
	C458.9,69.8,457.1,71.5,455,71.5z M445.9,31.4c-0.6,0-1,0.5-1,1v35.3c0,0.6,0.5,1,1,1h9.1c0.6,0,1-0.5,1-1V32.4c0-0.6-0.5-1-1-1
	L445.9,31.4L445.9,31.4z"/>
<path d="M478.1,71.5H469c-2.1,0-3.9-1.8-3.9-3.9V32.4c0-2.1,1.8-3.9,3.9-3.9h9.1c2.1,0,3.9,1.8,3.9,3.9v35.3
	C482,69.8,480.2,71.5,478.1,71.5z M469,31.4c-0.6,0-1,0.5-1,1v35.3c0,0.6,0.5,1,1,1h9.1c0.6,0,1-0.5,1-1V32.4c0-0.6-0.5-1-1-1
	L469,31.4L469,31.4z"/>
</svg>
